{"title":"A.Christmas.Wish.2011.HDTV.XviD-NoGRP","uid":6907950,"size":739890301,"categoryP":"video","categoryS":"movies","magnet":"?xt=urn:btih:f6c66cdec48df30f7e735b1a7ad3b98e201d3dd8&amp;dn=A.Christmas.Wish.2011.HDTV.XviD-NoGRP&amp;tr=udp%3A%2F%2Ftracker.openbittorrent.com%3A80&amp;tr=udp%3A%2F%2Fopen.demonii.com%3A1337&amp;tr=udp%3A%2F%2Ftracker.coppersurfer.tk%3A6969&amp;tr=udp%3A%2F%2Fexodus.desync.com%3A6969","seeders":0,"leechers":1,"uploader":"TvTeam","files":5,"time":1324668532,"description":". \n &lt;a href=&quot;\nhttp://www.torrenting.com&quot; rel=&quot;nofollow&quot; target=&quot;_NEW&quot;&gt;\nhttp://www.torrenting.com&lt;/a&gt;          :     Once &amp; For all ;)\n\n\n               www . Torrenting . Com \n\n(((((((((((((= Enjoy No RAR releases =))))))))))))))))))))\n\n\n...................................NFO:....................................\n\n.http://www.imdb.com/title/tt1577038/\n\nGeneral\nComplete name                    : A.Christmas.Wish.2011.HDTV.XviD-NoGRP.avi\nFormat                           : AVI\nFormat/Info                      : Audio Video Interleave\nFile size                        : 700 MiB\nDuration                         : 1h 23mn\nOverall bit rate                 : 1 173 Kbps\n\nVideo\nID                               : 0\nFormat                           : MPEG-4 Visual\nFormat profile                   : Advanced Simple@L5\nFormat settings, BVOP            : 2\nFormat settings, QPel            : No\nFormat settings, GMC             : No warppoints\nFormat settings, Matrix          : Default (H.263)\nCodec ID                         : XVID\nCodec ID/Hint                    : XviD\nDuration                         : 1h 23mn\nBit rate                         : 1 031 Kbps\nWidth                            : 624 pixels\nHeight                           : 352 pixels\nDisplay aspect ratio             : 16:9\nFrame rate                       : 29.970 fps\nColor space                      : YUV\nChroma subsampling               : 4:2:0\nBit depth                        : 8 bits\nScan type                        : Progressive\nCompression mode                 : Lossy\nBits/(Pixel*Frame)               : 0.157\nStream size                      : 615 MiB (88%)\nWriting library                  : XviD 63\n\nAudio\nID                               : 1\nFormat                           : MPEG Audio\nFormat version                   : Version 1\nFormat profile                   : Layer 3\nCodec ID                         : 55\nCodec ID/Hint                    : MP3\nDuration                         : 1h 23mn\nBit rate mode                    : Constant\nBit rate                         : 128 Kbps\nChannel(s)                       : 2 channels\nSampling rate                    : 48.0 KHz\nCompression mode                 : Lossy\nStream size                      : 76.3 MiB (11%)\nAlignment                        : Split accross interleaves\nInterleave, duration             : 24 ms (0.72 video frame)\nWriting library                  : LAME3.98.4","torrent":{"xt":"urn:btih:f6c66cdec48df30f7e735b1a7ad3b98e201d3dd8","amp;dn":"A.Christmas.Wish.2011.HDTV.XviD-NoGRP","amp;tr":["udp%3A%2F%2Ftracker.openbittorrent.com%3A80","udp%3A%2F%2Fopen.demonii.com%3A1337","udp%3A%2F%2Ftracker.coppersurfer.tk%3A6969","udp%3A%2F%2Fexodus.desync.com%3A6969"],"infoHash":"f6c66cdec48df30f7e735b1a7ad3b98e201d3dd8","infoHashBuffer":{"type":"Buffer","data":[246,198,108,222,196,141,243,15,126,115,91,26,122,211,185,142,32,29,61,216]},"announce":[],"urlList":[]}}